<?xml version="1.0" encoding="utf-8"?>
<!-- Generator: Adobe Illustrator 19.0.0, SVG Export Plug-In . SVG Version: 6.00 Build 0)  -->
<svg version="1.1" xmlns="http://www.w3.org/2000/svg" xmlns:xlink="http://www.w3.org/1999/xlink" x="0px" y="0px"
	 viewBox="0 0 128 128" style="enable-background:new 0 0 128 128;" xml:space="preserve">
<style type="text/css">
	.st0{stroke:#000000;stroke-miterlimit:10;}
	.st1{fill:#22A7F0;}
</style>
<g id="Layer_1">
	<rect id="XMLID_1_" class="st0" width="128" height="128"/>
</g>
<g id="Layer_2">
	<g id="XMLID_3_">
		<path id="XMLID_4_" class="st1" d="M58.8,75.5c0,11-3.1,20.3-9.3,27.7c-6.2,7.4-15.7,13.7-28.6,18.7l-7.1-12.4
			c10.7-2,18.9-6.2,24.7-12.4c-11,1.6-20,2.9-26.8,3.8L7.3,89.3c16.6-1.9,29.1-3.4,37.5-4.5c0.3-1.9,0.5-3.3,0.6-4.4H16.4V68.6h29.3
			v-6.8h-32V49.9h32v-6.6h13.1V75.5z M114.1,39.8h-100V8.1h100V39.8z M43.1,28.3v-8.6H26.9v8.6H43.1z M72.2,28.3v-8.6H55.9v8.6H72.2
			z M121.2,99.3H83.3V120H70.3V43.3h13.1v6.6h32v11.9h-32v6.8h29.4v11.9H83.3v6.9h37.9V99.3z M101.3,28.3v-8.6H85v8.6H101.3z"/>
	</g>
</g>
</svg>
